<?xml version="1.0" standalone="no"?>
<!DOCTYPE svg PUBLIC "-//W3C//DTD SVG 1.1//EN" "http://www.w3.org/Graphics/SVG/1.1/DTD/svg11.dtd" >
<svg xmlns="http://www.w3.org/2000/svg">
<metadata>
This is a custom SVG webfont generated by Font Squirrel.
Designer    : Commercial Type
Foundry     : Commercial Type
Foundry URL : http://commercialtype.com
</metadata>
<defs>
<font id="webfont" horiz-adv-x="298" >
<font-face units-per-em="1000" ascent="750" descent="-250" />
<missing-glyph horiz-adv-x="220" />
<glyph unicode=" "  horiz-adv-x="220" />
<glyph unicode="&#x09;" horiz-adv-x="220" />
<glyph unicode="&#xa0;" horiz-adv-x="220" />
<glyph unicode="!" horiz-adv-x="275" d="M65 601q28 2 45 2q41 0 83 -6q0 -38 -4 -416q-21 -7 -69 -7q-14 0 -36 2q-14 240 -19 425zM142 120q31 0 49.5 -17.5t18.5 -46.5q0 -28 -19 -44.5t-49 -16.5q-35 0 -54.5 17t-19.5 45t20.5 45.5t53.5 17.5z" />
<glyph unicode="&#x22;" horiz-adv-x="365" d="M45 601q26 2 36 2q27 0 75 -5q-4 -86 -3 -185q-21 -6 -63 -6q-13 0 -33 2q-3 38 -5 70.5l-4 66t-3 55.5zM209 604q26 2 50 2q31 0 61 -5q-4 -87 -3 -192q-21 -6 -63 -6q-13 0 -33 2q-4 51 -7.5 119t-4.5 80z" />
<glyph unicode="#" horiz-adv-x="472" d="M372 93q-60 -3 -84 -3q0 4 -1 16.5t-1.5 34.5t-1.5 39l-91 -2l3 -85q-18 -7 -52 -7q-27 0 -36 3l-3 89h-71q0 58 1 79q36 0 67 1l-2 72h-66q-6 44 -6 82q18 -1 70 -1q-1 43 -1 121q47 0 81 -2l6 -120h90q-6 116 -7 134q42 7 94 7l4 -140l76 2q3 -18 3 -40q0 -18 -2 -34 q-16 -2 -76 -4l2 -74q36 1 69 1q4 -30 6 -75q-27 -4 -74 -5zM188 331l2 -72q30 1 91 1l-4 73z" />
<glyph unicode="%" horiz-adv-x="655" d="M278 407q0 -64 -37.5 -107.5t-92.5 -43.5q-56 0 -90.5 36.5t-34.5 94.5q0 69 38.5 110t97.5 41q53 0 86 -36t33 -95zM157 461q-24 0 -39 -21.5t-15 -57.5q0 -31 14 -47t35 -16q49 0 49 77q0 31 -12 48t-32 17zM631 155q0 -64 -34.5 -111t-90.5 -47q-55 0 -91 38.5 t-36 105.5q0 64 37 110t91 46q56 0 90 -36t34 -106zM510 216q-23 0 -37.5 -21.5t-14.5 -58.5q0 -33 14 -50.5t34 -17.5q51 0 51 81q0 29 -13 48t-34 19zM132 -28l282 570q34 0 74 -14l-272 -568q-41 4 -84 12z" />
<glyph unicode="&#x26;" horiz-adv-x="591" d="M571 65q-43 -55 -76 -86q-53 34 -94 71q-66 -74 -174 -74q-88 0 -145 43.5t-57 118.5q0 52 33.5 91t81.5 52q-40 28 -59.5 66t-19.5 75q0 62 52 107.5t137 45.5q75 0 124.5 -40.5t49.5 -107.5q0 -88 -109 -162q38 -35 87 -67q32 36 75 94q42 -23 83 -56q-49 -67 -83 -105 q39 -31 94 -66zM171 422q0 -56 79 -102q34 17 55.5 44.5t21.5 52.5q0 36 -21 54.5t-58 18.5q-31 0 -54 -19.5t-23 -48.5zM148 142q0 -32 22 -54.5t60 -22.5q57 0 101 54q-71 51 -126 102q-57 -17 -57 -79z" />
<glyph unicode="'" horiz-adv-x="201" d="M45 594q26 2 50 2q31 0 61 -5q-4 -87 -3 -192q-21 -6 -63 -6q-13 0 -33 2q-4 51 -7.5 119t-4.5 80z" />
<glyph unicode="(" horiz-adv-x="303" d="M170 635q45 -8 93 -35q-94 -149 -94 -316q0 -154 76 -324q-39 -14 -109 -23q-86 170 -86 357q0 91 33.5 183.5t86.5 157.5z" />
<glyph unicode=")" horiz-adv-x="296" d="M60 597q40 15 95 26q41 -65 66 -160t25 -175q0 -86 -30.5 -182.5t-71.5 -162.5q-49 7 -104 23q32 62 56 150.5t24 167.5q0 143 -60 313z" />
<glyph unicode="*" horiz-adv-x="368" d="M25 500l52 72q31 -27 70 -56l-9 104q50 5 92 5q-1 -8 -5.5 -55.5t-6.5 -65.5q73 40 97 56q20 -42 28 -85q-46 -17 -94 -29q14 -19 60 -75q-32 -33 -73 -53q-30 68 -48 104q-30 -78 -36 -97q-46 13 -87 39q17 29 63 89q-54 21 -103 47z" />
<glyph unicode="+" horiz-adv-x="407" d="M247 82q-45 0 -91 4q0 67 1 131q-120 -2 -123 -2q-4 46 -4 91q40 4 129 6q2 120 3 136q42 5 94 5q0 -26 -2 -138q50 1 123 1q0 -52 -5 -94q-32 -2 -119 -4q-4 -102 -6 -136z" />
<glyph unicode="," horiz-adv-x="202" d="M33 68q0 25 19 44.5t50 19.5q29 0 47 -20.5t18 -52.5q0 -36 -32.5 -83.5t-73.5 -72.5q-27 10 -48 28q34 32 65 75q-20 6 -32.5 23t-12.5 39z" />
<glyph unicode="-" d="M30 321q110 10 238 10q0 -57 -5 -102q-129 -7 -229 -7q-4 50 -4 99z" />
<glyph unicode="." horiz-adv-x="202" d="M35 56q0 31 18.5 50.5t46.5 19.5q29 0 48 -18t19 -50t-18 -51.5t-46 -19.5q-30 0 -49 19t-19 50z" />
<glyph unicode="/" horiz-adv-x="425" d="M-10 -20l346 646q52 0 99 -15q-165 -298 -336 -644q-80 7 -109 13z" />
<glyph unicode="0" horiz-adv-x="541" d="M275 559q104 0 161.5 -77.5t57.5 -195.5q0 -143 -62 -219.5t-161 -76.5q-102 0 -163 72.5t-61 196.5q0 138 64.5 219t163.5 81zM278 465q-55 0 -88 -53.5t-33 -151.5q0 -86 32 -136.5t84 -50.5q110 0 110 203q0 87 -29 138t-76 51z" />
<glyph unicode="1" horiz-adv-x="468" d="M307 98l119 -3q0 -31 -2 -85q-285 -16 -350 -16q-5 45 -5 90q113 8 133 9l-6 334q-77 -56 -111 -78q-32 45 -47 85q100 61 184 125q44 -3 77 -15q3 -268 8 -446z" />
<glyph unicode="2" horiz-adv-x="435" d="M387 104q4 -42 4 -97q-208 0 -354 -6q-8 34 -13 99q256 212 256 299q0 55 -81 55q-54 0 -128 -29q-20 49 -27 97q83 39 164 39q84 0 134 -40t50 -113q0 -55 -51 -125t-176 -179h222z" />
<glyph unicode="3" horiz-adv-x="465" d="M413 148q0 -74 -55 -116.5t-149 -42.5q-108 0 -185 37q11 72 21 105q87 -35 164 -35q43 0 67.5 17t24.5 46q0 72 -174 82q-4 20 -4 51v32q108 3 145.5 18t37.5 55q0 29 -23 45t-66 16q-66 0 -146 -32q-18 47 -29 87q33 19 84.5 32.5t96.5 13.5q86 0 140.5 -41.5 t54.5 -112.5q0 -87 -98 -123q93 -40 93 -134z" />
<glyph unicode="4" horiz-adv-x="523" d="M272 561q57 0 127 -6q4 -74 9 -319q11 0 68 3q0 -15 -0.5 -52.5t-0.5 -50.5q-38 -2 -65 -2q0 -7 11 -134q-55 -13 -118 -13l-4 149q-109 -2 -270 -8q0 62 3 91l76 104.5l94 136zM160 230h138l-3 194q-63 -71 -135 -194z" />
<glyph unicode="5" horiz-adv-x="473" d="M262 342q81 0 129.5 -44.5t48.5 -115.5q0 -93 -61.5 -145t-151.5 -52q-95 0 -184 37q8 50 27 97q67 -36 138 -36q58 0 92.5 24t34.5 68q0 35 -28.5 54.5t-79.5 19.5q-56 0 -171 -27q19 184 37 325q154 8 312 8q0 -45 -3 -96q-110 0 -223 -5q-1 -5 -6 -54.5t-8 -73.5 q47 16 97 16z" />
<glyph unicode="6" horiz-adv-x="502" d="M297 353q76 0 123.5 -47.5t47.5 -123.5q0 -88 -59 -141t-139 -53q-107 0 -165 75.5t-58 202.5q0 133 76 216t197 83q50 0 92 -14q-4 -46 -12 -98q-36 9 -66 9q-76 0 -123.5 -45.5t-58.5 -135.5q49 72 145 72zM263 83q42 0 72.5 28t30.5 74q0 39 -23 61.5t-61 22.5 q-46 0 -76.5 -28.5t-30.5 -74.5q0 -37 25 -60t63 -23z" />
<glyph unicode="7" horiz-adv-x="458" d="M41 446q-8 38 -8 81q0 22 1 27q282 6 380 6q6 -42 6 -86q-70 -193 -193 -486q-69 7 -117 19q112 239 197 446q-92 -2 -266 -7z" />
<glyph unicode="8" horiz-adv-x="532" d="M490 163q0 -80 -65.5 -131.5t-165.5 -51.5q-98 0 -157 44t-59 116q0 50 29.5 90.5t85.5 57.5q-80 35 -80 118q0 71 50.5 115t140.5 44q87 0 135 -41t48 -107q0 -78 -66 -120q104 -36 104 -134zM265 72q49 0 81 24.5t32 66.5q0 33 -28.5 56t-75.5 23q-53 0 -86 -25 t-33 -64q0 -37 29 -59t81 -22zM270 477q-34 0 -59.5 -21t-25.5 -54t21.5 -52t59.5 -19q34 0 58 21t24 54q0 35 -22.5 53t-55.5 18z" />
<glyph unicode="9" horiz-adv-x="497" d="M216 200q-82 0 -130 44.5t-48 116.5q0 85 56 140.5t139 55.5q99 0 158 -65.5t59 -188.5q0 -147 -82.5 -228.5t-207.5 -81.5q-69 0 -112 10q0 52 2 96q51 -7 95 -7q80 0 133.5 42t71.5 122q-53 -56 -134 -56zM229 289q43 0 70.5 25t27.5 65q0 34 -26 57.5t-62 23.5 q-46 0 -72.5 -25.5t-26.5 -62.5t25 -60t64 -23z" />
<glyph unicode=":" horiz-adv-x="224" d="M176 56q0 -31 -19 -50t-48 -19q-28 0 -46 19.5t-18 50.5q0 32 19 50t48 18q27 0 45.5 -19.5t18.5 -49.5zM45 286q0 31 19 50.5t50 19.5q29 0 47 -19.5t18 -52.5t-19 -51t-49 -18q-29 0 -47.5 20t-18.5 51z" />
<glyph unicode=";" horiz-adv-x="224" d="M45 78q0 25 19 44.5t50 19.5q29 0 47 -20.5t18 -52.5q0 -36 -32.5 -83.5t-73.5 -72.5q-27 10 -48 28q34 32 65 75q-20 6 -32.5 23t-12.5 39zM44 278q0 31 19 50.5t50 19.5q29 0 47 -19.5t18 -52.5t-19 -51t-49 -18q-29 0 -47.5 20t-18.5 51z" />
<glyph unicode="=" horiz-adv-x="408" d="M40 378q110 10 317 10q0 -46 -5 -91q-130 -7 -308 -7q-4 50 -4 88zM368 236q0 -43 -4 -93q-300 0 -319 1q-5 45 -5 96q229 0 328 -4z" />
<glyph unicode="?" horiz-adv-x="482" d="M442 428q0 -140 -186 -175q1 -23 7 -82q-30 -6 -73 -6q-21 0 -43 2l-10 161q103 9 142 29t39 58q0 30 -29 49t-91 19q-69 0 -147 -25q-8 57 -11 108q90 36 183 36q98 0 158.5 -49.5t60.5 -124.5zM210 123q36 0 54.5 -18t18.5 -46q0 -27 -18.5 -46.5t-51.5 -19.5 q-37 0 -57.5 18t-20.5 48q0 27 20.5 45.5t54.5 18.5z" />
<glyph unicode="@" horiz-adv-x="790" d="M481 382q40 -2 70 -16q-10 -54 -10 -153q0 -146 58 -146q28 0 47.5 49.5t19.5 123.5q0 115 -67.5 184.5t-176.5 69.5q-137 0 -213 -88.5t-76 -231.5q0 -106 57.5 -180t155.5 -74q52 0 115 16q7 -40 11 -75q-58 -22 -137 -22q-133 0 -211.5 99t-78.5 240 q0 172 103.5 286.5t270.5 114.5q146 0 236 -93.5t90 -251.5q0 -119 -42 -184t-111 -65q-94 0 -121 106q-46 -67 -119 -67q-60 0 -96.5 43t-36.5 117q0 79 44 132.5t111 53.5q53 0 94 -44q5 34 13 56zM365 110q34 0 58.5 29t24.5 75q0 31 -16 49t-40 18q-34 0 -56.5 -28 t-22.5 -70q0 -34 14 -53.5t38 -19.5z" />
<glyph unicode="A" horiz-adv-x="546" d="M25 -18q24 109 80 318.5t86 300.5q57 9 146 9q108 -335 184 -618q-49 -18 -119 -18l-38 166q-110 -5 -191 -11q-9 -32 -31 -157q-57 0 -117 10zM201 234q22 -2 132 -2q-29 131 -67 247q-12 -32 -65 -245z" />
<glyph unicode="B" horiz-adv-x="522" d="M487 174q0 -77 -63.5 -130t-180.5 -53q-87 0 -177 11q-1 92 -11 581q85 27 184 27q92 0 149.5 -41t57.5 -113q0 -44 -23.5 -80t-63.5 -56q60 -14 94 -51.5t34 -94.5zM186 86q28 -7 69 -7q51 0 78.5 25.5t27.5 68.5q0 84 -112 84q-29 0 -63 -6v-165zM182 354q27 -4 50 -4 q42 0 66.5 19.5t24.5 59.5q0 36 -24.5 58t-75.5 22q-21 0 -47 -7q0 -54 6 -148z" />
<glyph unicode="C" horiz-adv-x="521" d="M491 32q-29 -18 -74.5 -29.5t-85.5 -11.5q-129 0 -210 85.5t-81 228.5q0 126 82.5 209.5t210.5 83.5q68 0 127 -25q-13 -60 -32 -106q-43 16 -89 16q-80 0 -128 -51t-48 -134q0 -86 51 -137t129 -51q56 0 119 25q17 -49 29 -103z" />
<glyph unicode="D" horiz-adv-x="570" d="M77 21q-17 330 -17 541q82 22 184 22q128 0 207 -73.5t79 -198.5q0 -142 -84 -223.5t-215 -81.5q-89 0 -154 14zM182 476q-10 -186 0 -366q24 -2 31 -2q91 0 145.5 52t54.5 157q0 78 -46 121t-128 43q-22 0 -57 -5z" />
<glyph unicode="E" horiz-adv-x="496" d="M60 587q225 13 396 13q0 -20 -0.5 -38.5t-1.5 -39t-1 -32.5q-52 1 -276 -2q0 -78 5 -156q136 4 182 4q5 -48 5 -102q-140 -5 -176 -7q0 -108 8 -155q107 0 244 10q0 -61 -5 -109q-24 0 -165 0.5t-196 0.5q-5 102 -12 320t-7 293z" />
<glyph unicode="F" horiz-adv-x="468" d="M60 3q0 280 6 589q284 0 387 -5q0 -59 -9 -102q-188 0 -260 -3q0 -113 2 -148q128 0 172 -1q3 -23 3 -53q0 -26 -3 -50q-16 -1 -53.5 -2t-77 -2.5t-47.5 -1.5q0 -8 5 -223q-44 -2 -62 -2q-35 0 -63 4z" />
<glyph unicode="G" horiz-adv-x="630" d="M283 208q0 75 3 114q172 0 300 -12q4 -42 4 -64q0 -119 -74 -192t-186 -73q-130 0 -210 85t-80 223q0 144 87 236.5t221 92.5q120 0 210 -60q-16 -62 -40 -111q-91 52 -162 52q-85 0 -138 -55t-53 -150q0 -98 45 -152.5t120 -54.5q53 0 95 32t51 92q-37 -1 -108.5 -2 t-84.5 -1z" />
<glyph unicode="H" horiz-adv-x="550" d="M60 581q43 6 75 6q31 0 42 -1q0 -33 -1 -127t0 -135q104 0 194 11q0 37 -1.5 128.5t-1.5 112.5q73 0 123 -3q0 -81 -2 -194t-5 -225.5l-4 -149.5q-64 -8 -102 -8q-5 88 -5 233q-101 -14 -190 -19v-214q-52 -9 -114 -10q-8 251 -8 595z" />
<glyph unicode="I" horiz-adv-x="257" d="M71 576q30 4 53 4q35 0 59 -6q9 -173 9 -574q-26 -6 -60 -6q-32 0 -67 6q0 378 6 576z" />
<glyph unicode="J" horiz-adv-x="233" d="M-64 -167q9 61 18 109q35 -10 65 -10q52 0 52 121q0 57 -9 261t-17 287q53 9 119 9q10 -81 21 -284t11 -304q0 -106 -45.5 -154.5t-122.5 -48.5q-52 0 -92 14z" />
<glyph unicode="K" horiz-adv-x="556" d="M536 13q-65 -13 -142 -13q-57 55 -209 221q3 -186 3 -199q-38 -7 -72 -7q-32 0 -56 4q0 336 8 554q25 4 59 4q27 0 51 -3q0 -103 5 -238l212 251q30 2 58 2q22 0 79 -3l-249 -301q154 -171 253 -272z" />
<glyph unicode="L" horiz-adv-x="453" d="M60 577q22 4 57.5 3.5t50.5 -4.5q0 -237 13 -458q144 0 248 8q4 -28 4 -60q0 -21 -2 -47q-44 -5 -186.5 -11.5t-182.5 -6.5q0 53 -1 295.5t-1 280.5z" />
<glyph unicode="M" horiz-adv-x="706" d="M394 140q-12 -4 -41 -4q-43 0 -63 4q-63 153 -119 334q1 -67 5.5 -251.5t4.5 -212.5q-35 -8 -72 -8q-25 0 -49 3q0 236 10 583q80 12 169 12q29 -114 106 -317q68 176 115 316q13 1 43 1q48 0 102 -14q10 -109 41 -573q-62 -6 -126 -6q0 133 -5 450q-77 -212 -121 -317z " />
<glyph unicode="N" horiz-adv-x="565" d="M366 -12q-102 200 -204 434q23 -382 28 -446q-48 -8 -120 -8q-10 304 -10 588q70 12 156 12q68 -170 182 -424q-4 220 -10 414q35 5 69 5q22 0 48 -2q-5 -140 -5 -561q-48 -12 -134 -12z" />
<glyph unicode="O" horiz-adv-x="632" d="M40 272q0 130 76 213t194 83q126 0 204 -77t78 -199q0 -125 -76.5 -210.5t-192.5 -85.5q-132 0 -207.5 72.5t-75.5 203.5zM325 462q-71 0 -114.5 -55t-43.5 -144q0 -75 42 -118.5t116 -43.5q64 0 105 50.5t41 129.5q0 81 -36 131t-110 50z" />
<glyph unicode="P" horiz-adv-x="530" d="M77 5q-17 387 -17 565q87 28 201 28q120 0 184.5 -50.5t64.5 -132.5q0 -107 -81.5 -156.5t-245.5 -49.5q4 -66 18 -193q-48 -11 -124 -11zM185 315q23 -3 73 -3q139 0 139 98q0 78 -136 78q-49 0 -85 -12q2 -87 9 -161z" />
<glyph unicode="Q" horiz-adv-x="656" d="M332 591q127 0 205.5 -82.5t78.5 -208.5q0 -82 -35 -145t-94 -101l55 -110q-15 -12 -52.5 -32t-59.5 -27l-53 128q-21 -3 -43 -3q-138 0 -216 78.5t-78 214.5q0 119 85.5 203.5t206.5 84.5zM291 248q43 21 87 25l60 -119q53 53 53 147q0 77 -46.5 126t-115.5 49 q-72 0 -116.5 -53.5t-44.5 -135.5q0 -77 44.5 -127t115.5 -50h12q-37 100 -49 138z" />
<glyph unicode="R" horiz-adv-x="557" d="M187 -2q-73 -10 -127 1q0 66 6.5 273.5t11.5 289.5q84 27 184 27q119 0 184.5 -52t65.5 -145q0 -62 -35.5 -106.5t-92.5 -63.5q69 -132 127 -217q-60 -16 -128 -16q-50 83 -103 209q-53 0 -98 3q0 -133 5 -203zM247 297q69 0 104.5 26t35.5 69q0 50 -31 70.5t-109 20.5 q-27 0 -61 -6q-4 -35 -7 -173q28 -7 68 -7z" />
<glyph unicode="S" horiz-adv-x="431" d="M401 575q-5 -46 -21 -105q-58 25 -111 25q-104 0 -104 -71q0 -27 22.5 -49t54 -40.5t63.5 -40t54.5 -56t22.5 -79.5q0 -73 -55 -120t-147 -47q-68 0 -128 13q-2 24 -2 39q0 38 5 68q68 -14 108 -14q94 0 94 57q0 22 -22.5 43t-54 40.5t-63.5 42.5t-54.5 61t-22.5 85 q0 78 56 128t158 50q77 0 147 -30z" />
<glyph unicode="T" horiz-adv-x="490" d="M320 3q-54 -8 -126 -8q-6 428 -5 474q-93 -2 -164 -6q-5 51 -5 116q288 10 450 10q0 -35 -5 -112l-160 -5q2 -50 7 -228t8 -241z" />
<glyph unicode="U" horiz-adv-x="533" d="M52 595q76 0 126 -8q-17 -153 -17 -290q0 -202 105 -202q100 0 100 187q0 126 -15 312q53 6 118 6q27 -169 27 -311q0 -147 -60.5 -221.5t-165.5 -74.5q-109 0 -171 74.5t-62 225.5q0 170 15 302z" />
<glyph unicode="V" horiz-adv-x="553" d="M410 583q66 0 118 -18q-104 -336 -167 -573q-29 -5 -66 -5q-43 0 -80 5q-81 221 -190 574q30 6 64 6q35 0 63 -4q61 -216 135 -429q51 162 123 444z" />
<glyph unicode="W" horiz-adv-x="834" d="M148 560q31 -178 91 -421l100 402q23 4 57 4q51 0 93 -9q44 -204 91 -388q7 22 116 422q55 0 113 -15l-43.5 -161.5l-64 -233t-52.5 -176.5q-22 -2 -44 -2q-57 0 -102 9l-89 404l-105 -394q-49 -9 -97 -9q-32 0 -63 3l-60.5 275t-63.5 284q30 9 83 9q26 0 40 -3z" />
<glyph unicode="X" horiz-adv-x="560" d="M529 592l-174 -287l185 -291q-15 -8 -57.5 -16.5t-68.5 -8.5l-36.5 58.5l-48.5 80.5l-46 76q-94 -148 -137 -222q-30 0 -71 5.5t-55 11.5l194 296l-177 300q77 11 126 11l125 -211l125 203q62 0 116 -6z" />
<glyph unicode="Y" horiz-adv-x="558" d="M543 575q-77 -123 -204 -360q8 -151 14 -219q-28 -8 -84 -8q-33 0 -55 3q-3 132 -3 235q-84 145 -196 358q75 17 132 17q61 -130 132 -265q65 109 141 253q67 0 123 -14z" />
<glyph unicode="Z" horiz-adv-x="491" d="M45 112q209 271 273 361q-183 -8 -258 -15q-5 85 -5 121q170 5 383 5q8 -68 8 -125l-257 -346q168 4 248 9q0 -50 -4 -116q-162 -2 -377 -2q-11 68 -11 108z" />
<glyph unicode="a" horiz-adv-x="448" d="M93 306q-18 44 -33 108q73 26 143 26q75 0 121.5 -40.5t57.5 -114.5q14 -93 16 -284q-22 -6 -46 -6t-37 1l-4 61q-26 -40 -68 -62t-83 -22q-57 0 -93.5 34.5t-36.5 91.5q0 63 46 101t125 38q46 0 85 -11q0 99 -86 99q-49 0 -107 -20zM143 107q0 -18 12.5 -29.5 t33.5 -11.5q35 0 59.5 20t24.5 59q0 9 -3 17q-18 5 -38 5q-40 0 -64.5 -18t-24.5 -42z" />
<glyph unicode="b" horiz-adv-x="478" d="M165 54v-58q-24 -4 -52 -4q-21 0 -43 5q-4 60 -9.5 326.5t-5.5 352.5q18 4 57 4q25 0 57 -4q-2 -55 -4.5 -170.5l-3.5 -162.5q54 59 132 59q66 0 108 -49t42 -127q0 -85 -51 -149t-122 -64q-66 0 -105 41zM163 183q0 -40 21 -64t57 -24q39 0 66.5 34t27.5 91q0 39 -21 61 t-56 22q-40 0 -67.5 -33.5t-27.5 -86.5z" />
<glyph unicode="c" horiz-adv-x="414" d="M350 113q16 -25 39 -78q-24 -21 -64 -35.5t-78 -14.5q-101 0 -156.5 61t-55.5 149q0 92 62 153.5t149 61.5q78 0 133 -37q-18 -43 -47 -98q-41 23 -85 23q-43 0 -73 -31t-30 -77q0 -48 29 -79t73 -31q49 0 104 33z" />
<glyph unicode="d" horiz-adv-x="514" d="M340 695q61 0 119 -10q0 -118 -19 -665q-34 -10 -100 -10l-5 56q-55 -42 -123 -42q-78 0 -127.5 49.5t-49.5 130.5q0 79 49 135t130 56q63 0 121 -36q5 255 5 336zM231 113q40 0 72 29t32 78q0 34 -21 55t-58 21q-43 0 -72.5 -29t-29.5 -73q0 -35 22 -58t55 -23z" />
<glyph unicode="e" horiz-adv-x="441" d="M35 208q0 80 54 140t135 60q92 0 137 -59t45 -162q-121 -18 -252 -18q10 -40 46 -60.5t88 -20.5q36 0 82 17q16 -29 34 -84q-62 -40 -140 -40q-97 0 -161 63.5t-68 163.5zM228 326q-29 2 -49.5 -18t-25.5 -59q67 -4 130 4q2 70 -55 73z" />
<glyph unicode="f" horiz-adv-x="330" d="M20 387l68 6v31q0 134 44.5 189t130.5 55q24 0 39 -5q3 -21 3 -50q0 -22 -2 -46q-56 -5 -77 -31t-21 -99v-34q32 2 92 4q6 -43 6 -107q-64 -4 -96 -5q4 -204 12 -303q-58 -10 -103 -11q-17 135 -24 309q-42 -2 -62 -2q-10 58 -10 99z" />
<glyph unicode="g" horiz-adv-x="480" d="M35 213q0 78 48.5 131.5t129.5 53.5q59 0 113 -38q4 16 11 51q40 0 78 -8q20 -162 20 -270q0 -304 -216 -304q-94 0 -176 58q30 59 58 94q67 -37 111 -37q116 0 117 164q-56 -52 -138 -52q-68 0 -112 43t-44 114zM156 220q0 -31 17.5 -51.5t48.5 -20.5q38 0 66 23t28 63 q0 32 -18.5 51.5t-49.5 19.5q-41 0 -66.5 -24t-25.5 -61z" />
<glyph unicode="h" horiz-adv-x="467" d="M63 34q-8 239 -8 625q46 0 121 -7q0 -8 -4 -117.5l-6 -160.5q50 47 103 47q72 0 110 -64.5t38 -220.5q0 -52 -3 -121q-20 -2 -41 -2q-29 0 -69 5q2 26 2 140q0 74 -16 106t-49 32q-36 0 -55.5 -38.5t-19.5 -144.5q0 -49 2 -87q-74 0 -105 8z" />
<glyph unicode="i" horiz-adv-x="234" d="M50 532q0 29 18 48t46 19q31 0 50.5 -18t19.5 -50q0 -30 -17 -48.5t-44 -18.5q-33 0 -53 19t-20 49zM52 408q27 3 48 3q40 0 76 -7q-1 -36 -4.5 -181.5l-4.5 -186.5q-21 -3 -51 -3t-57 5q-2 68 -7 370z" />
<glyph unicode="j" horiz-adv-x="231" d="M173 402q7 -133 7 -311q0 -111 -33.5 -158t-102.5 -47q-28 0 -71 9q5 43 14 87q25 -5 36 -5q27 0 39 28.5t12 100.5q0 130 -15 299q71 0 114 -3zM49 543q0 28 19 47.5t50 19.5q29 0 46 -18.5t17 -48.5q0 -27 -18.5 -46t-45.5 -19q-30 0 -49 17.5t-19 47.5z" />
<glyph unicode="k" horiz-adv-x="430" d="M173 -4q-18 -2 -42 -2q-31 0 -76 6q0 453 4 670q64 0 102 -7q0 -55 -0.5 -182t-0.5 -189l133 124q52 -7 117 -23q-90 -85 -187 -168l202 -207q-68 -21 -115 -27q-72 72 -148 161q3 -34 7 -94t4 -62z" />
<glyph unicode="l" horiz-adv-x="226" d="M55 630q77 0 116 -5q-3 -76 -4.5 -178t-2 -232t-1.5 -205q-20 0 -104 3q-1 96 -2 309t-2 308z" />
<glyph unicode="m" horiz-adv-x="663" d="M482 392q62 0 96.5 -45t34.5 -124q0 -122 -7 -208q-50 -7 -106 -7q0 17 -0.5 99.5t-0.5 97.5q0 46 -12 65.5t-38 19.5q-57 0 -57 -87q0 -127 6 -192q-74 -4 -114 -4q2 46 2 194q0 103 -62 103q-58 0 -58 -103q0 -64 3 -184q-36 -6 -71 -6q-15 0 -43 2q7 361 12 408 q29 3 57 3q26 0 47 -3v-66q44 47 101 47q35 0 61 -19.5t36 -55.5q44 65 113 65z" />
<glyph unicode="n" horiz-adv-x="436" d="M141 345q45 62 104 62q53 0 87 -30t42 -85q12 -85 12 -263q-44 -6 -105 -2q-3 142 -13 208q-9 56 -52 56q-60 0 -60 -101q0 -92 7 -172q-68 -5 -106 -1q-2 252 -2 390q22 3 48 3q21 0 39 -2q-1 -16 -1 -63z" />
<glyph unicode="o" horiz-adv-x="476" d="M246 415q82 0 138.5 -56.5t56.5 -138.5q0 -88 -62 -149.5t-152 -61.5q-80 0 -136 55.5t-56 137.5q0 89 59 151t152 62zM333 201q0 45 -23 78t-63 33q-46 0 -71 -29.5t-25 -71.5q0 -48 25.5 -82t63.5 -34q44 0 68.5 32.5t24.5 73.5z" />
<glyph unicode="p" horiz-adv-x="490" d="M278 411q72 0 124.5 -57t52.5 -145q0 -97 -53 -152.5t-131 -55.5q-56 0 -93 34q4 -90 14 -249q-64 -11 -122 -11q-14 474 -15 619q42 11 88 11l8 -61q41 67 127 67zM259 303q-41 0 -69 -30.5t-28 -80.5q0 -45 23.5 -72t65.5 -27q39 0 65.5 29t26.5 87q0 43 -23 68.5 t-61 25.5z" />
<glyph unicode="q" horiz-adv-x="515" d="M361 367l6 66q18 2 32 2q24 0 42 -5q9 -372 19 -610q-32 -10 -84 -10q-15 0 -29 2l-2 256q-54 -42 -124 -42q-82 0 -134 53.5t-52 138.5q0 84 58.5 140t135.5 56t132 -47zM255 318q-41 0 -71.5 -32.5t-30.5 -78.5q0 -42 25.5 -68t66.5 -26q40 0 68 32t28 78 q0 43 -22.5 69t-63.5 26z" />
<glyph unicode="r" horiz-adv-x="325" d="M295 443q12 -58 15 -114q-70 0 -105.5 -42.5t-35.5 -106.5q0 -65 11 -156q-49 -15 -86 -15q-19 0 -29 1q-10 125 -10 319q0 69 1 97q34 5 83 5q1 -42 7 -86q19 38 60 65t89 33z" />
<glyph unicode="s" horiz-adv-x="350" d="M320 419q-8 -44 -22 -92q-34 16 -73 16q-67 0 -67 -43q0 -21 24 -41t53 -35.5t53 -47.5t24 -74q0 -52 -39 -85t-98 -33q-74 0 -140 37q11 38 34 83q53 -29 98 -29q16 0 25 8t9 21q0 15 -16.5 30t-39.5 29.5t-46 32.5t-39.5 47t-16.5 65q0 61 45 98t126 37q58 0 106 -24z " />
<glyph unicode="t" horiz-adv-x="335" d="M112 311h-85q-7 47 -7 104q68 -2 90 -2q-2 110 -2 156q61 0 103 -4l8 -151q23 0 93 2q3 -22 3 -51q0 -23 -2 -43q-28 -3 -90 -7l12 -307q-25 -9 -68 -9q-29 0 -45 4z" />
<glyph unicode="u" horiz-adv-x="460" d="M203 6q-153 0 -153 196q0 82 6 216q61 -2 105 -7q-2 -94 -2 -199q0 -64 15.5 -91.5t48.5 -27.5q65 0 65 110q0 101 -4 193q41 6 103 6q7 -219 18 -379q-28 -15 -92 -15q-4 15 -7 55q-32 -57 -103 -57z" />
<glyph unicode="v" horiz-adv-x="414" d="M298 426q62 -11 106 -24q-58 -183 -143 -407q-80 0 -137 9q-63 197 -104 406q44 9 104 13q32 -152 80 -317q44 136 94 320z" />
<glyph unicode="w" horiz-adv-x="644" d="M269 388q64 0 128 -8q8 -32 64 -238l65 265q62 -8 108 -20q-63 -204 -129 -395q-55 0 -105 9q-7 29 -36.5 137t-37.5 142q-36 -111 -78 -262q-83 -9 -115 -9q-52 159 -113 395q63 13 112 13q19 -109 57 -265z" />
<glyph unicode="x" horiz-adv-x="442" d="M5 13l153 206q-89 132 -130 206l117 13q29 -54 81 -133l81 114q79 -4 114 -11l-136 -187l152 -219q-60 -10 -119 -10l-100 144l-95 -136q-54 4 -118 13z" />
<glyph unicode="y" horiz-adv-x="465" d="M410 62q0 -125 -52 -189.5t-143 -64.5q-89 0 -158 47l45 100q18 -13 47.5 -23.5t49.5 -10.5q37 0 57.5 10.5t36 48.5t20.5 110q-14 -32 -43 -49t-64 -17q-156 0 -156 196q0 56 6 189q61 -2 105 -7q-2 -94 -2 -172q0 -119 73 -119q65 0 65 110q0 86 -12 196q41 6 103 6 q22 -166 22 -361z" />
<glyph unicode="z" horiz-adv-x="374" d="M339 105q0 -47 -5 -91q-136 -4 -194 -4q-60 0 -91 3q-7 50 -11 96q72 78 182 210q-129 -7 -176 -9q-6 49 -9 88q117 7 292 12q11 -49 12 -92l-177 -213h177z" />
<glyph unicode="&#xa3;" horiz-adv-x="508" d="M24 318h96q42 114 109 177t152 63q69 0 108 -17q-7 -44 -21 -92q-27 8 -51 8q-64 0 -106.5 -32.5t-72.5 -107.5q95 0 127 -1q-2 -59 -5 -97q-100 0 -152 1q-13 -53 -24 -125q173 6 251 11q2 -39 2 -104q-188 -8 -375 -8q5 127 30 230l-73 3q0 46 5 91z" />
<glyph unicode="&#xad;" d="M30 321q110 10 238 10q0 -57 -5 -102q-129 -7 -229 -7q-4 50 -4 99z" />
<glyph unicode="&#x2000;" horiz-adv-x="347" />
<glyph unicode="&#x2001;" horiz-adv-x="695" />
<glyph unicode="&#x2002;" horiz-adv-x="347" />
<glyph unicode="&#x2003;" horiz-adv-x="695" />
<glyph unicode="&#x2004;" horiz-adv-x="231" />
<glyph unicode="&#x2005;" horiz-adv-x="173" />
<glyph unicode="&#x2006;" horiz-adv-x="115" />
<glyph unicode="&#x2007;" horiz-adv-x="115" />
<glyph unicode="&#x2008;" horiz-adv-x="86" />
<glyph unicode="&#x2009;" horiz-adv-x="139" />
<glyph unicode="&#x200a;" horiz-adv-x="38" />
<glyph unicode="&#x2010;" d="M30 321q110 10 238 10q0 -57 -5 -102q-129 -7 -229 -7q-4 50 -4 99z" />
<glyph unicode="&#x2011;" d="M30 321q110 10 238 10q0 -57 -5 -102q-129 -7 -229 -7q-4 50 -4 99z" />
<glyph unicode="&#x2013;" horiz-adv-x="421" d="M30 235q0 49 4 99q222 0 352 -7q5 -45 5 -102q-251 0 -361 10z" />
<glyph unicode="&#x2014;" horiz-adv-x="550" d="M520 232q-110 -10 -490 -10q0 57 5 102q24 1 235.5 4t245.5 3q4 -50 4 -99z" />
<glyph unicode="&#x2018;" horiz-adv-x="241" d="M176 430q0 -26 -18 -45.5t-50 -19.5q-31 0 -49.5 22t-18.5 59q0 40 28 80t75 69q38 -14 58 -30q-31 -28 -66 -78q41 -16 41 -57z" />
<glyph unicode="&#x2019;" horiz-adv-x="221" d="M44 523q0 26 19 45.5t47 19.5q33 0 52 -21.5t19 -58.5q0 -35 -24.5 -75.5t-59.5 -67.5q-27 10 -57 28q23 23 53 70q-49 14 -49 60z" />
<glyph unicode="&#x201c;" horiz-adv-x="406" d="M176 437q0 -26 -18 -45.5t-50 -19.5q-31 0 -49.5 22t-18.5 59q0 40 28 80t75 69q38 -14 58 -30q-31 -28 -66 -78q41 -16 41 -57zM362 426q0 -27 -19 -46.5t-48 -19.5q-34 0 -53 21.5t-19 59.5q0 36 24.5 77t60.5 68q28 -10 58 -28q-25 -25 -54 -72q50 -12 50 -60z" />
<glyph unicode="&#x201d;" horiz-adv-x="404" d="M228 536q0 26 18 45.5t50 19.5q31 0 49.5 -22t18.5 -59q0 -40 -28 -80t-75 -69q-38 14 -58 30q33 29 65 78q-40 16 -40 57zM44 529q0 26 19 45.5t47 19.5q33 0 52 -21.5t19 -58.5q0 -35 -24.5 -75.5t-59.5 -67.5q-27 10 -57 28q23 23 53 70q-49 14 -49 60z" />
<glyph unicode="&#x2022;" horiz-adv-x="311" d="M151 385q55 0 87.5 -33t32.5 -85q0 -51 -32 -83.5t-78 -32.5q-49 0 -85 31t-36 84q0 52 31.5 85.5t79.5 33.5z" />
<glyph unicode="&#x202f;" horiz-adv-x="139" />
<glyph unicode="&#x205f;" horiz-adv-x="173" />
</font>
</defs>
</svg>
