<?xml version="1.0" standalone="no"?>
<!DOCTYPE svg PUBLIC "-//W3C//DTD SVG 1.1//EN" "http://www.w3.org/Graphics/SVG/1.1/DTD/svg11.dtd" >
<svg xmlns="http://www.w3.org/2000/svg">
<metadata>
This is a custom SVG webfont generated by Font Squirrel.
Designer    : Commercial Type
Foundry     : Commercial Type
Foundry URL : http://commercialtype.com
</metadata>
<defs>
<font id="webfont" horiz-adv-x="370" >
<font-face units-per-em="1000" ascent="750" descent="-250" />
<missing-glyph horiz-adv-x="260" />
<glyph unicode=" "  horiz-adv-x="260" />
<glyph unicode="&#x09;" horiz-adv-x="260" />
<glyph unicode="&#xa0;" horiz-adv-x="260" />
<glyph unicode="!" horiz-adv-x="285" d="M70 601q28 2 45 2q41 0 83 -6q0 -38 -4 -416q-21 -7 -69 -7q-14 0 -36 2q-14 240 -19 425zM147 120q31 0 49.5 -17.5t18.5 -46.5q0 -28 -19 -44.5t-49 -16.5q-35 0 -54.5 17t-19.5 45t20.5 45.5t53.5 17.5z" />
<glyph unicode="&#x22;" horiz-adv-x="375" d="M50 601q26 2 36 2q28 0 75 -5q-4 -86 -3 -185q-21 -6 -63 -6q-13 0 -33 2q-3 38 -5 70.5l-4 66t-3 55.5zM214 604q26 2 50 2q31 0 61 -5q-4 -87 -3 -192q-21 -6 -63 -6q-13 0 -33 2q-4 51 -7.5 119t-4.5 80z" />
<glyph unicode="#" horiz-adv-x="537" d="M405 90q-60 -3 -84 -3q0 4 -1 16t-1.5 33.5t-1.5 37.5q-15 0 -45.5 -0.5t-45.5 -0.5l3 -83q-18 -7 -52 -7q-18 0 -36 3l-3 86h-71q0 57 1 76q3 0 26 0.5t41 0.5l-2 70h-66q-6 42 -6 80q18 -1 70 -1q-1 41 -1 117q47 0 81 -2l6 -116h90q-6 112 -7 129q40 7 94 7l3 -135 q39 0 77 2q3 -18 3 -39q0 -17 -2 -33q-18 -2 -76 -4q0 -12 0.5 -36t0.5 -35q37 1 70 1q4 -31 6 -73q-17 -2 -74 -4zM220 320l3 -70l91 2l-4 70z" />
<glyph unicode="%" horiz-adv-x="711" d="M288 394q0 -62 -37.5 -104.5t-92.5 -42.5q-56 0 -90.5 35.5t-34.5 91.5q0 67 38.5 107t97.5 40q53 0 86 -35.5t33 -91.5zM167 446q-24 0 -39 -20.5t-15 -55.5q0 -30 13.5 -45.5t34.5 -15.5q50 0 50 74q0 30 -12 46.5t-32 16.5zM678 150q0 -62 -34.5 -107.5t-90.5 -45.5 q-55 0 -91.5 37.5t-36.5 102.5q0 62 37.5 106t91.5 44q55 0 89.5 -34.5t34.5 -102.5zM556 209q-23 0 -37 -21t-14 -57q0 -31 14 -48t34 -17q51 0 51 78q0 28 -13 46.5t-35 18.5zM160 -27l282 552q28 0 74 -14q-150 -290 -272 -550q-41 4 -84 12z" />
<glyph unicode="&#x26;" horiz-adv-x="651" d="M606 65q-43 -55 -76 -86q-53 34 -94 71q-66 -74 -174 -74q-88 0 -145 43.5t-57 118.5q0 52 33.5 91t81.5 52q-40 28 -59.5 66t-19.5 75q0 62 52 107.5t137 45.5q75 0 124.5 -40.5t49.5 -107.5q0 -88 -109 -162q38 -35 87 -67q32 36 75 94q42 -23 83 -56q-49 -67 -83 -105 q39 -31 94 -66zM206 422q0 -56 79 -102q34 17 55.5 44.5t21.5 52.5q0 36 -21 54.5t-58 18.5q-31 0 -54 -19.5t-23 -48.5zM183 142q0 -32 22 -54.5t60 -22.5q57 0 101 54q-71 51 -126 102q-57 -17 -57 -79z" />
<glyph unicode="'" horiz-adv-x="211" d="M50 594q26 2 50 2q31 0 61 -5q-4 -87 -3 -192q-21 -6 -63 -6q-13 0 -33 2q-4 51 -7.5 119t-4.5 80z" />
<glyph unicode="(" horiz-adv-x="343" d="M185 635q45 -8 93 -35q-94 -149 -94 -316q0 -154 76 -324q-39 -14 -109 -23q-86 170 -86 357q0 91 33.5 183.5t86.5 157.5z" />
<glyph unicode=")" horiz-adv-x="336" d="M85 597q40 15 95 26q41 -65 66 -160t25 -175q0 -86 -30.5 -182.5t-71.5 -162.5q-49 7 -104 23q32 62 56 150.5t24 167.5q0 143 -60 313z" />
<glyph unicode="*" horiz-adv-x="418" d="M50 500l52 72q31 -27 70 -56l-9 104q50 5 92 5q-1 -8 -5.5 -55.5t-6.5 -65.5q73 40 97 56q20 -42 28 -85q-46 -17 -94 -29q14 -19 60 -75q-32 -33 -73 -53q-30 68 -48 104q-30 -78 -36 -97q-46 13 -87 39q17 29 63 89q-54 21 -103 47z" />
<glyph unicode="+" horiz-adv-x="457" d="M272 82q-45 0 -91 4q0 67 1 131q-120 -2 -123 -2q-4 46 -4 91q40 4 129 6q2 120 3 136q42 5 94 5q0 -26 -2 -138q50 1 123 1q0 -52 -5 -94q-32 -2 -119 -4q-4 -102 -6 -136z" />
<glyph unicode="," horiz-adv-x="224" d="M55 68q0 25 19 44.5t50 19.5q29 0 47 -20.5t18 -52.5q0 -36 -32.5 -83.5t-73.5 -72.5q-27 10 -48 28q34 32 65 75q-20 6 -32.5 23t-12.5 39z" />
<glyph unicode="-" horiz-adv-x="348" d="M55 321q110 10 238 10q0 -57 -5 -102q-130 -7 -229 -7q-4 50 -4 99z" />
<glyph unicode="." horiz-adv-x="242" d="M55 56q0 31 18.5 50.5t46.5 19.5q29 0 48 -18t19 -50t-18 -51.5t-46 -19.5q-30 0 -49 19t-19 50z" />
<glyph unicode="/" horiz-adv-x="515" d="M35 -20l346 646q52 0 99 -15q-165 -298 -336 -644q-80 7 -109 13z" />
<glyph unicode="0" horiz-adv-x="588" d="M299 541q104 0 161 -75t57 -189q0 -139 -61.5 -213t-160.5 -74q-102 0 -163 70.5t-61 190.5q0 133 64.5 211.5t163.5 78.5zM301 450q-54 0 -87 -51.5t-33 -146.5q0 -84 32 -132.5t84 -48.5q110 0 110 196q0 85 -29 134t-77 49z" />
<glyph unicode="1" horiz-adv-x="488" d="M435 92q0 -30 -2 -82q-220 -15 -349 -15q-6 51 -6 86q117 9 134 9q-6 172 -6 324q-85 -60 -111 -77q-31 41 -47 83q93 55 184 121q49 -3 77 -15q3 -238 7 -432q61 0 119 -2z" />
<glyph unicode="2" horiz-adv-x="487" d="M410 101q5 -53 5 -94q-272 -3 -354 -6q-10 42 -13 96q255 205 255 289q0 53 -81 53q-55 0 -127 -28q-20 47 -27 94q85 38 164 38q83 0 133.5 -39t50.5 -109q0 -53 -51 -121t-176 -173h221z" />
<glyph unicode="3" horiz-adv-x="508" d="M436 143q0 -72 -55 -113t-148 -41q-107 0 -185 36q8 62 21 102q82 -34 164 -34q43 0 67.5 16.5t24.5 44.5q0 70 -174 79q-5 23 -5 50q0 19 1 30q107 4 144.5 18t37.5 53q0 59 -88 59q-63 0 -146 -31q-14 35 -30 85q35 18 86 31t96 13q86 0 140.5 -40t54.5 -110 q0 -83 -98 -118q92 -39 92 -130z" />
<glyph unicode="4" horiz-adv-x="561" d="M296 543q58 0 126 -6q6 -99 10 -308q28 0 68 2q0 -14 -0.5 -50.5t-0.5 -49.5q-20 -1 -66 -1q1 -18 5.5 -64.5t6.5 -65.5q-57 -13 -118 -13l-4 144q-155 -3 -271 -7q0 63 4 88q26 34 240 331zM183 222h139q-4 176 -4 188q-25 -27 -66 -84t-69 -104z" />
<glyph unicode="5" horiz-adv-x="515" d="M286 331q80 0 128.5 -43.5t48.5 -111.5q0 -90 -61.5 -140t-151.5 -50q-96 0 -184 36q10 48 27 93q65 -35 139 -35q58 0 92.5 23.5t34.5 65.5q0 34 -29 53t-80 19q-52 0 -171 -26l20.5 173t16.5 141q125 8 313 8q0 -44 -3 -92q-87 0 -223 -6q-12 -103 -15 -124 q44 16 98 16z" />
<glyph unicode="6" horiz-adv-x="544" d="M321 342q75 0 123 -46.5t48 -119.5q0 -85 -59 -136.5t-139 -51.5q-107 0 -165 72.5t-58 196.5q0 129 75.5 209.5t196.5 80.5q48 0 92 -13q-6 -64 -12 -96q-30 9 -66 9q-76 0 -123 -44t-58 -130q50 69 145 69zM287 80q41 0 72 27t31 72q0 37 -23 59t-61 22q-46 0 -77 -28 t-31 -72q0 -36 25 -58t64 -22z" />
<glyph unicode="7" horiz-adv-x="501" d="M60 432q-8 35 -8 78q0 21 1 26q282 6 380 6q6 -40 6 -83q-74 -198 -193 -471q-81 10 -118 18q134 281 197 432q-160 -3 -265 -6z" />
<glyph unicode="8" horiz-adv-x="580" d="M513 157q0 -77 -65 -126.5t-165 -49.5q-98 0 -157.5 42.5t-59.5 112.5q0 48 30 87t86 55q-81 34 -81 115q0 69 51 111t141 42q86 0 134 -39.5t48 -103.5q0 -75 -65 -116q103 -34 103 -130zM288 69q50 0 82 24t32 64q0 33 -28.5 55t-75.5 22q-53 0 -86 -24.5t-33 -61.5 q0 -36 28.5 -57.5t80.5 -21.5zM294 462q-35 0 -60.5 -20.5t-25.5 -52.5t21 -50.5t60 -18.5q35 0 58.5 20.5t23.5 52.5q0 34 -22 51.5t-55 17.5z" />
<glyph unicode="9" horiz-adv-x="544" d="M240 193q-82 0 -130.5 43t-48.5 113q0 83 56 136.5t140 53.5q99 0 157.5 -63.5t58.5 -182.5q0 -143 -82.5 -221.5t-207.5 -78.5q-68 0 -111 10q0 52 2 92q56 -6 94 -6q79 0 132.5 40t71.5 116q-52 -52 -132 -52zM252 280q44 0 71.5 24t27.5 63q0 33 -26 55.5t-63 22.5 q-45 0 -71.5 -24.5t-26.5 -60.5t24.5 -58t63.5 -22z" />
<glyph unicode=":" horiz-adv-x="264" d="M196 56q0 -31 -19 -50t-48 -19q-28 0 -46 19.5t-18 50.5q0 32 19 50t48 18q27 0 45.5 -19.5t18.5 -49.5zM65 286q0 31 19 50.5t50 19.5q29 0 47 -19.5t18 -52.5t-19 -51t-49 -18q-29 0 -47.5 20t-18.5 51z" />
<glyph unicode=";" horiz-adv-x="264" d="M65 78q0 25 19 44.5t50 19.5q29 0 47 -20.5t18 -52.5q0 -36 -32.5 -83.5t-73.5 -72.5q-27 10 -48 28q34 32 65 75q-20 6 -32.5 23t-12.5 39zM64 278q0 31 19 50.5t50 19.5q29 0 47 -19.5t18 -52.5t-19 -51t-49 -18q-29 0 -47.5 20t-18.5 51z" />
<glyph unicode="=" horiz-adv-x="448" d="M60 378q110 10 317 10q0 -46 -5 -91q-130 -7 -308 -7q-4 50 -4 88zM388 236q0 -43 -4 -93q-300 0 -319 1q-5 45 -5 96q229 0 328 -4z" />
<glyph unicode="?" horiz-adv-x="522" d="M462 428q0 -140 -186 -175q1 -23 7 -82q-30 -6 -73 -6q-21 0 -43 2l-10 161q103 9 142 29t39 58q0 30 -29 49t-91 19q-69 0 -147 -25q-8 57 -11 108q90 36 183 36q98 0 158.5 -49.5t60.5 -124.5zM230 123q36 0 54.5 -18t18.5 -46q0 -27 -18.5 -46.5t-51.5 -19.5 q-37 0 -57.5 18t-20.5 48q0 27 20.5 45.5t54.5 18.5z" />
<glyph unicode="@" horiz-adv-x="820" d="M496 382q40 -2 70 -16q-10 -54 -10 -153q0 -146 58 -146q28 0 47.5 49.5t19.5 123.5q0 115 -67.5 184.5t-176.5 69.5q-137 0 -213 -88.5t-76 -231.5q0 -106 57.5 -180t155.5 -74q52 0 115 16q7 -40 11 -75q-58 -22 -137 -22q-133 0 -211.5 99t-78.5 240 q0 172 103.5 286.5t270.5 114.5q146 0 236 -93.5t90 -251.5q0 -119 -42 -184t-111 -65q-94 0 -121 106q-46 -67 -119 -67q-60 0 -96.5 43t-36.5 117q0 79 44 132.5t111 53.5q53 0 94 -44q5 34 13 56zM380 110q34 0 58.5 29t24.5 75q0 31 -16 49t-40 18q-34 0 -56.5 -28 t-22.5 -70q0 -34 14 -53.5t38 -19.5z" />
<glyph unicode="A" horiz-adv-x="498" d="M118 306q-18 44 -33 108q73 26 143 26q75 0 121.5 -40.5t57.5 -114.5q14 -93 16 -284q-22 -6 -46 -6t-37 1l-4 61q-26 -40 -68 -62t-83 -22q-57 0 -93.5 34.5t-36.5 91.5q0 63 46 101t125 38q46 0 85 -11q0 99 -86 99q-49 0 -107 -20zM168 107q0 -18 12.5 -29.5 t33.5 -11.5q35 0 59.5 20t24.5 59q0 9 -3 17q-18 5 -38 5q-40 0 -64.5 -18t-24.5 -42z" />
<glyph unicode="B" horiz-adv-x="528" d="M190 54v-58q-24 -4 -52 -4q-21 0 -43 5q-4 60 -9.5 326.5t-5.5 352.5q18 4 57 4q25 0 57 -4q-2 -55 -4.5 -170.5l-3.5 -162.5q54 59 132 59q66 0 108 -49t42 -127q0 -85 -51 -149t-122 -64q-66 0 -105 41zM197 185q0 -36 19 -58t51 -22q35 0 59.5 31t24.5 82q0 35 -19 55 t-50 20q-36 0 -60.5 -30.5t-24.5 -77.5z" />
<glyph unicode="C" horiz-adv-x="464" d="M375 113q16 -25 39 -78q-24 -21 -64 -35.5t-78 -14.5q-101 0 -156.5 61t-55.5 149q0 92 62 153.5t149 61.5q78 0 133 -37q-18 -43 -47 -98q-41 23 -85 23q-43 0 -73 -31t-30 -77q0 -48 29 -79t73 -31q49 0 104 33z" />
<glyph unicode="D" horiz-adv-x="559" d="M365 695q61 0 119 -10q0 -118 -19 -665q-34 -10 -100 -10l-5 56q-55 -42 -123 -42q-78 0 -127.5 49.5t-49.5 130.5q0 79 49 135t130 56q63 0 121 -36q5 255 5 336zM257 122q36 0 65 26t29 70q0 31 -19 50t-52 19q-39 0 -65.5 -26.5t-26.5 -65.5q0 -31 20 -52t49 -21z" />
<glyph unicode="E" horiz-adv-x="486" d="M60 208q0 80 54 140t135 60q92 0 137 -59t45 -162q-121 -18 -252 -18q10 -40 46 -60.5t88 -20.5q36 0 82 17q16 -29 34 -84q-62 -40 -140 -40q-97 0 -161 63.5t-68 163.5zM253 326q-29 2 -49.5 -18t-25.5 -59q67 -4 130 4q2 70 -55 73z" />
<glyph unicode="F" d="M45 387l68 6v31q0 134 44.5 189t130.5 55q24 0 39 -5q3 -21 3 -50q0 -22 -2 -46q-56 -5 -77 -31t-21 -99v-34q32 2 92 4q6 -43 6 -107q-64 -4 -96 -5q4 -204 12 -303q-58 -10 -103 -11q-17 135 -24 309q-42 -2 -62 -2q-10 58 -10 99z" />
<glyph unicode="G" horiz-adv-x="530" d="M60 213q0 78 48.5 131.5t129.5 53.5q59 0 113 -38q4 16 11 51q40 0 78 -8q20 -162 20 -270q0 -304 -216 -304q-94 0 -176 58q30 59 58 94q67 -37 111 -37q116 0 117 164q-56 -52 -138 -52q-68 0 -112 43t-44 114zM189 221q0 -28 16 -46.5t43 -18.5q35 0 60 20.5t25 56.5 q0 29 -16.5 46.5t-44.5 17.5q-37 0 -60 -21.5t-23 -54.5z" />
<glyph unicode="H" horiz-adv-x="517" d="M88 34q-8 239 -8 625q46 0 121 -7q0 -8 -4 -117.5l-6 -160.5q50 47 103 47q72 0 110 -64.5t38 -220.5q0 -52 -3 -121q-20 -2 -41 -2q-29 0 -69 5q2 26 2 140q0 74 -16 106t-49 32q-36 0 -55.5 -38.5t-19.5 -144.5q0 -49 2 -87q-74 0 -105 8z" />
<glyph unicode="I" horiz-adv-x="275" d="M70 532q0 29 18 48t46 19q31 0 50.5 -18t19.5 -50q0 -30 -17 -48.5t-44 -18.5q-33 0 -53 19t-20 49zM72 408q27 3 48 3q40 0 76 -7q-1 -36 -4.5 -181.5l-4.5 -186.5q-21 -3 -51 -3t-57 5q-2 68 -7 370z" />
<glyph unicode="J" horiz-adv-x="279" d="M198 402q7 -133 7 -311q0 -111 -33.5 -158t-102.5 -47q-27 0 -71 9q5 43 14 87q25 -5 36 -5q27 0 39 28.5t12 100.5q0 130 -15 299q70 0 114 -3zM74 543q0 28 19 47.5t50 19.5q29 0 46 -18.5t17 -48.5q0 -27 -18.5 -46t-45.5 -19q-30 0 -49 17.5t-19 47.5z" />
<glyph unicode="K" horiz-adv-x="480" d="M198 -4q-18 -2 -42 -2q-31 0 -76 6q0 453 4 670q64 0 102 -7q0 -55 -0.5 -182t-0.5 -189l133 124q52 -7 117 -23q-90 -85 -187 -168l202 -207q-68 -21 -115 -27q-72 72 -148 161q3 -34 7 -94t4 -62z" />
<glyph unicode="L" horiz-adv-x="276" d="M80 630q77 0 116 -5q-3 -76 -4.5 -178t-2 -232t-1.5 -205q-20 0 -104 3q-1 96 -2 309t-2 308z" />
<glyph unicode="M" horiz-adv-x="713" d="M507 392q62 0 96.5 -45t34.5 -124q0 -122 -7 -208q-50 -7 -106 -7q0 17 -0.5 99.5t-0.5 97.5q0 46 -12 65.5t-38 19.5q-57 0 -57 -87q0 -127 6 -192q-74 -4 -114 -4q2 46 2 194q0 103 -62 103q-58 0 -58 -103q0 -64 3 -184q-36 -6 -71 -6q-15 0 -43 2q7 361 12 408 q28 3 57 3q26 0 47 -3v-66q44 47 101 47q35 0 61 -19.5t36 -55.5q44 65 113 65z" />
<glyph unicode="N" horiz-adv-x="487" d="M167 345q45 62 104 62q53 0 87 -30t42 -85q12 -85 12 -263q-44 -6 -105 -2q-3 142 -13 208q-9 56 -52 56q-60 0 -60 -101q0 -92 7 -172q-68 -5 -106 -1q-2 127 -2 390q22 3 48 3q21 0 39 -2q-1 -16 -1 -63z" />
<glyph unicode="O" horiz-adv-x="526" d="M271 415q82 0 138.5 -56.5t56.5 -138.5q0 -88 -62 -149.5t-152 -61.5q-80 0 -136 55.5t-56 137.5q0 89 59 151t152 62zM349 201q0 41 -20.5 70.5t-57.5 29.5q-41 0 -63.5 -26.5t-22.5 -64.5q0 -43 22.5 -73.5t57.5 -30.5q39 0 61.5 29t22.5 66z" />
<glyph unicode="P" horiz-adv-x="540" d="M303 411q72 0 124.5 -57t52.5 -145q0 -97 -53 -152.5t-131 -55.5q-56 0 -93 34q4 -90 14 -249q-64 -11 -122 -11q-14 474 -15 619q42 11 88 11l8 -61q41 67 127 67zM283 292q-36 0 -61.5 -27.5t-25.5 -71.5q0 -41 21.5 -65.5t58.5 -24.5q35 0 59 26.5t24 78.5 q0 39 -21 61.5t-55 22.5z" />
<glyph unicode="Q" horiz-adv-x="550" d="M386 367l6 66q18 2 32 2q24 0 42 -5q9 -372 19 -610q-33 -10 -84 -10q-15 0 -29 2l-2 256q-54 -42 -124 -42q-82 0 -134 53.5t-52 138.5q0 84 58.5 140t135.5 56t132 -47zM279 308q-37 0 -64.5 -29.5t-27.5 -70.5q0 -38 23.5 -61.5t59.5 -23.5t61.5 29t25.5 70 q0 39 -20.5 62.5t-57.5 23.5z" />
<glyph unicode="R" d="M320 443q12 -58 15 -114q-70 0 -105.5 -42.5t-35.5 -106.5q0 -65 11 -156q-49 -15 -86 -15q-19 0 -29 1q-10 125 -10 319q0 69 1 97q34 5 83 5q2 -42 7 -86q19 38 60 65t89 33z" />
<glyph unicode="S" horiz-adv-x="390" d="M340 419q-8 -44 -22 -92q-34 16 -73 16q-67 0 -67 -43q0 -21 24 -41t53 -35.5t53 -47.5t24 -74q0 -52 -39 -85t-98 -33q-74 0 -140 37q11 38 34 83q53 -29 98 -29q16 0 25 8t9 21q0 15 -16.5 30t-39.5 29.5t-46 32.5t-39.5 47t-16.5 65q0 61 45 98t126 37q58 0 106 -24z " />
<glyph unicode="T" horiz-adv-x="395" d="M142 311h-85q-7 47 -7 104q68 -2 90 -2q-2 110 -2 156q61 0 103 -4l8 -151q23 0 93 2q3 -22 3 -51q0 -23 -2 -43q-28 -3 -90 -7l12 -307q-25 -9 -68 -9q-29 0 -45 4z" />
<glyph unicode="U" horiz-adv-x="510" d="M228 6q-153 0 -153 196q0 82 6 216q61 -2 105 -7q-2 -94 -2 -199q0 -64 15.5 -91.5t48.5 -27.5q65 0 65 110q0 101 -4 193q41 6 103 6q7 -219 18 -379q-28 -15 -92 -15q-4 15 -7 55q-32 -57 -103 -57z" />
<glyph unicode="V" horiz-adv-x="464" d="M323 426q62 -11 106 -24q-58 -183 -143 -407q-80 0 -137 9q-63 197 -104 406q44 9 104 13q32 -152 80 -317q44 136 94 320z" />
<glyph unicode="W" horiz-adv-x="699" d="M294 388q64 0 128 -8q8 -32 64 -238l65 265q62 -8 108 -20q-63 -204 -129 -395q-56 0 -105 9q-7 29 -36.5 137t-37.5 142q-36 -111 -78 -262q-83 -9 -115 -9q-52 159 -113 395q63 13 112 13q19 -109 57 -265z" />
<glyph unicode="X" horiz-adv-x="507" d="M35 13l153 206q-89 132 -130 206l117 13q29 -54 81 -133l81 114q79 -4 114 -11l-136 -187l152 -219q-60 -10 -119 -10l-100 144l-95 -136q-54 4 -118 13z" />
<glyph unicode="Y" horiz-adv-x="505" d="M435 62q0 -125 -52 -189.5t-143 -64.5q-89 0 -158 47l45 100q18 -13 47.5 -23.5t49.5 -10.5q37 0 57.5 10.5t36 48.5t20.5 110q-14 -32 -43 -49t-64 -17q-156 0 -156 196q0 56 6 189q61 -2 105 -7q-2 -94 -2 -172q0 -119 73 -119q65 0 65 110q0 86 -12 196q41 6 103 6 q22 -166 22 -361z" />
<glyph unicode="Z" horiz-adv-x="434" d="M369 105q0 -47 -5 -91q-136 -4 -194 -4q-60 0 -91 3q-7 50 -11 96q72 78 182 210q-129 -7 -176 -9q-6 49 -9 88q117 7 292 12q11 -49 12 -92l-177 -213h177z" />
<glyph unicode="a" horiz-adv-x="498" d="M118 306q-18 44 -33 108q73 26 143 26q75 0 121.5 -40.5t57.5 -114.5q14 -93 16 -284q-22 -6 -46 -6t-37 1l-4 61q-26 -40 -68 -62t-83 -22q-57 0 -93.5 34.5t-36.5 91.5q0 63 46 101t125 38q46 0 85 -11q0 99 -86 99q-49 0 -107 -20zM168 107q0 -18 12.5 -29.5 t33.5 -11.5q35 0 59.5 20t24.5 59q0 9 -3 17q-18 5 -38 5q-40 0 -64.5 -18t-24.5 -42z" />
<glyph unicode="b" horiz-adv-x="528" d="M190 54v-58q-24 -4 -52 -4q-21 0 -43 5q-4 60 -9.5 326.5t-5.5 352.5q18 4 57 4q25 0 57 -4q-2 -55 -4.5 -170.5l-3.5 -162.5q54 59 132 59q66 0 108 -49t42 -127q0 -85 -51 -149t-122 -64q-66 0 -105 41zM197 185q0 -36 19 -58t51 -22q35 0 59.5 31t24.5 82q0 35 -19 55 t-50 20q-36 0 -60.5 -30.5t-24.5 -77.5z" />
<glyph unicode="c" horiz-adv-x="464" d="M375 113q16 -25 39 -78q-24 -21 -64 -35.5t-78 -14.5q-101 0 -156.5 61t-55.5 149q0 92 62 153.5t149 61.5q78 0 133 -37q-18 -43 -47 -98q-41 23 -85 23q-43 0 -73 -31t-30 -77q0 -48 29 -79t73 -31q49 0 104 33z" />
<glyph unicode="d" horiz-adv-x="559" d="M365 695q61 0 119 -10q0 -118 -19 -665q-34 -10 -100 -10l-5 56q-55 -42 -123 -42q-78 0 -127.5 49.5t-49.5 130.5q0 79 49 135t130 56q63 0 121 -36q5 255 5 336zM257 122q36 0 65 26t29 70q0 31 -19 50t-52 19q-39 0 -65.5 -26.5t-26.5 -65.5q0 -31 20 -52t49 -21z" />
<glyph unicode="e" horiz-adv-x="486" d="M60 208q0 80 54 140t135 60q92 0 137 -59t45 -162q-121 -18 -252 -18q10 -40 46 -60.5t88 -20.5q36 0 82 17q16 -29 34 -84q-62 -40 -140 -40q-97 0 -161 63.5t-68 163.5zM253 326q-29 2 -49.5 -18t-25.5 -59q67 -4 130 4q2 70 -55 73z" />
<glyph unicode="f" d="M45 387l68 6v31q0 134 44.5 189t130.5 55q24 0 39 -5q3 -21 3 -50q0 -22 -2 -46q-56 -5 -77 -31t-21 -99v-34q32 2 92 4q6 -43 6 -107q-64 -4 -96 -5q4 -204 12 -303q-58 -10 -103 -11q-17 135 -24 309q-42 -2 -62 -2q-10 58 -10 99z" />
<glyph unicode="g" horiz-adv-x="530" d="M60 213q0 78 48.5 131.5t129.5 53.5q59 0 113 -38q4 16 11 51q40 0 78 -8q20 -162 20 -270q0 -304 -216 -304q-94 0 -176 58q30 59 58 94q67 -37 111 -37q116 0 117 164q-56 -52 -138 -52q-68 0 -112 43t-44 114zM189 221q0 -28 16 -46.5t43 -18.5q35 0 60 20.5t25 56.5 q0 29 -16.5 46.5t-44.5 17.5q-37 0 -60 -21.5t-23 -54.5z" />
<glyph unicode="h" horiz-adv-x="517" d="M88 34q-8 239 -8 625q46 0 121 -7q0 -8 -4 -117.5l-6 -160.5q50 47 103 47q72 0 110 -64.5t38 -220.5q0 -52 -3 -121q-20 -2 -41 -2q-29 0 -69 5q2 26 2 140q0 74 -16 106t-49 32q-36 0 -55.5 -38.5t-19.5 -144.5q0 -49 2 -87q-74 0 -105 8z" />
<glyph unicode="i" horiz-adv-x="275" d="M70 532q0 29 18 48t46 19q31 0 50.5 -18t19.5 -50q0 -30 -17 -48.5t-44 -18.5q-33 0 -53 19t-20 49zM72 408q27 3 48 3q40 0 76 -7q-1 -36 -4.5 -181.5l-4.5 -186.5q-21 -3 -51 -3t-57 5q-2 68 -7 370z" />
<glyph unicode="j" horiz-adv-x="279" d="M198 402q7 -133 7 -311q0 -111 -33.5 -158t-102.5 -47q-27 0 -71 9q5 43 14 87q25 -5 36 -5q27 0 39 28.5t12 100.5q0 130 -15 299q70 0 114 -3zM74 543q0 28 19 47.5t50 19.5q29 0 46 -18.5t17 -48.5q0 -27 -18.5 -46t-45.5 -19q-30 0 -49 17.5t-19 47.5z" />
<glyph unicode="k" horiz-adv-x="480" d="M198 -4q-18 -2 -42 -2q-31 0 -76 6q0 453 4 670q64 0 102 -7q0 -55 -0.5 -182t-0.5 -189l133 124q52 -7 117 -23q-90 -85 -187 -168l202 -207q-68 -21 -115 -27q-72 72 -148 161q3 -34 7 -94t4 -62z" />
<glyph unicode="l" horiz-adv-x="276" d="M80 630q77 0 116 -5q-3 -76 -4.5 -178t-2 -232t-1.5 -205q-20 0 -104 3q-1 96 -2 309t-2 308z" />
<glyph unicode="m" horiz-adv-x="713" d="M507 392q62 0 96.5 -45t34.5 -124q0 -122 -7 -208q-50 -7 -106 -7q0 17 -0.5 99.5t-0.5 97.5q0 46 -12 65.5t-38 19.5q-57 0 -57 -87q0 -127 6 -192q-74 -4 -114 -4q2 46 2 194q0 103 -62 103q-58 0 -58 -103q0 -64 3 -184q-36 -6 -71 -6q-15 0 -43 2q7 361 12 408 q28 3 57 3q26 0 47 -3v-66q44 47 101 47q35 0 61 -19.5t36 -55.5q44 65 113 65z" />
<glyph unicode="n" horiz-adv-x="487" d="M167 345q45 62 104 62q53 0 87 -30t42 -85q12 -85 12 -263q-44 -6 -105 -2q-3 142 -13 208q-9 56 -52 56q-60 0 -60 -101q0 -92 7 -172q-68 -5 -106 -1q-2 127 -2 390q22 3 48 3q21 0 39 -2q-1 -16 -1 -63z" />
<glyph unicode="o" horiz-adv-x="526" d="M271 415q82 0 138.5 -56.5t56.5 -138.5q0 -88 -62 -149.5t-152 -61.5q-80 0 -136 55.5t-56 137.5q0 89 59 151t152 62zM349 201q0 41 -20.5 70.5t-57.5 29.5q-41 0 -63.5 -26.5t-22.5 -64.5q0 -43 22.5 -73.5t57.5 -30.5q39 0 61.5 29t22.5 66z" />
<glyph unicode="p" horiz-adv-x="540" d="M303 411q72 0 124.5 -57t52.5 -145q0 -97 -53 -152.5t-131 -55.5q-56 0 -93 34q4 -90 14 -249q-64 -11 -122 -11q-14 474 -15 619q42 11 88 11l8 -61q41 67 127 67zM283 292q-36 0 -61.5 -27.5t-25.5 -71.5q0 -41 21.5 -65.5t58.5 -24.5q35 0 59 26.5t24 78.5 q0 39 -21 61.5t-55 22.5z" />
<glyph unicode="q" horiz-adv-x="550" d="M386 367l6 66q18 2 32 2q24 0 42 -5q9 -372 19 -610q-33 -10 -84 -10q-15 0 -29 2l-2 256q-54 -42 -124 -42q-82 0 -134 53.5t-52 138.5q0 84 58.5 140t135.5 56t132 -47zM279 308q-37 0 -64.5 -29.5t-27.5 -70.5q0 -38 23.5 -61.5t59.5 -23.5t61.5 29t25.5 70 q0 39 -20.5 62.5t-57.5 23.5z" />
<glyph unicode="r" d="M320 443q12 -58 15 -114q-70 0 -105.5 -42.5t-35.5 -106.5q0 -65 11 -156q-49 -15 -86 -15q-19 0 -29 1q-10 125 -10 319q0 69 1 97q34 5 83 5q2 -42 7 -86q19 38 60 65t89 33z" />
<glyph unicode="s" horiz-adv-x="390" d="M340 419q-8 -44 -22 -92q-34 16 -73 16q-67 0 -67 -43q0 -21 24 -41t53 -35.5t53 -47.5t24 -74q0 -52 -39 -85t-98 -33q-74 0 -140 37q11 38 34 83q53 -29 98 -29q16 0 25 8t9 21q0 15 -16.5 30t-39.5 29.5t-46 32.5t-39.5 47t-16.5 65q0 61 45 98t126 37q58 0 106 -24z " />
<glyph unicode="t" horiz-adv-x="395" d="M142 311h-85q-7 47 -7 104q68 -2 90 -2q-2 110 -2 156q61 0 103 -4l8 -151q23 0 93 2q3 -22 3 -51q0 -23 -2 -43q-28 -3 -90 -7l12 -307q-25 -9 -68 -9q-29 0 -45 4z" />
<glyph unicode="u" horiz-adv-x="510" d="M228 6q-153 0 -153 196q0 82 6 216q61 -2 105 -7q-2 -94 -2 -199q0 -64 15.5 -91.5t48.5 -27.5q65 0 65 110q0 101 -4 193q41 6 103 6q7 -219 18 -379q-28 -15 -92 -15q-4 15 -7 55q-32 -57 -103 -57z" />
<glyph unicode="v" horiz-adv-x="464" d="M323 426q62 -11 106 -24q-58 -183 -143 -407q-80 0 -137 9q-63 197 -104 406q44 9 104 13q32 -152 80 -317q44 136 94 320z" />
<glyph unicode="w" horiz-adv-x="699" d="M294 388q64 0 128 -8q8 -32 64 -238l65 265q62 -8 108 -20q-63 -204 -129 -395q-56 0 -105 9q-7 29 -36.5 137t-37.5 142q-36 -111 -78 -262q-83 -9 -115 -9q-52 159 -113 395q63 13 112 13q19 -109 57 -265z" />
<glyph unicode="x" horiz-adv-x="507" d="M35 13l153 206q-89 132 -130 206l117 13q29 -54 81 -133l81 114q79 -4 114 -11l-136 -187l152 -219q-60 -10 -119 -10l-100 144l-95 -136q-54 4 -118 13z" />
<glyph unicode="y" horiz-adv-x="505" d="M435 62q0 -125 -52 -189.5t-143 -64.5q-89 0 -158 47l45 100q18 -13 47.5 -23.5t49.5 -10.5q37 0 57.5 10.5t36 48.5t20.5 110q-14 -32 -43 -49t-64 -17q-156 0 -156 196q0 56 6 189q61 -2 105 -7q-2 -94 -2 -172q0 -119 73 -119q65 0 65 110q0 86 -12 196q41 6 103 6 q22 -166 22 -361z" />
<glyph unicode="z" horiz-adv-x="434" d="M369 105q0 -47 -5 -91q-136 -4 -194 -4q-60 0 -91 3q-7 50 -11 96q72 78 182 210q-129 -7 -176 -9q-6 49 -9 88q117 7 292 12q11 -49 12 -92l-177 -213h177z" />
<glyph unicode="&#xa3;" horiz-adv-x="546" d="M43 308h96q43 110 110 171t151 61q67 0 108 -16q-7 -43 -21 -89q-30 7 -51 7q-63 0 -106 -31.5t-73 -103.5q95 0 127 -1q-2 -57 -5 -95q-100 0 -152 2q-13 -51 -24 -121q173 6 251 11q2 -38 2 -101q-164 -7 -375 -7q5 122 30 221l-73 4q0 45 5 88z" />
<glyph unicode="&#xad;" horiz-adv-x="348" d="M55 321q110 10 238 10q0 -57 -5 -102q-130 -7 -229 -7q-4 50 -4 99z" />
<glyph unicode="&#x2000;" horiz-adv-x="347" />
<glyph unicode="&#x2001;" horiz-adv-x="695" />
<glyph unicode="&#x2002;" horiz-adv-x="347" />
<glyph unicode="&#x2003;" horiz-adv-x="695" />
<glyph unicode="&#x2004;" horiz-adv-x="231" />
<glyph unicode="&#x2005;" horiz-adv-x="173" />
<glyph unicode="&#x2006;" horiz-adv-x="115" />
<glyph unicode="&#x2007;" horiz-adv-x="115" />
<glyph unicode="&#x2008;" horiz-adv-x="86" />
<glyph unicode="&#x2009;" horiz-adv-x="139" />
<glyph unicode="&#x200a;" horiz-adv-x="38" />
<glyph unicode="&#x2010;" horiz-adv-x="348" d="M55 321q110 10 238 10q0 -57 -5 -102q-130 -7 -229 -7q-4 50 -4 99z" />
<glyph unicode="&#x2011;" horiz-adv-x="348" d="M55 321q110 10 238 10q0 -57 -5 -102q-130 -7 -229 -7q-4 50 -4 99z" />
<glyph unicode="&#x2013;" horiz-adv-x="471" d="M55 235q0 49 4 99q223 0 352 -7q5 -45 5 -102q-251 0 -361 10z" />
<glyph unicode="&#x2014;" horiz-adv-x="600" d="M545 232q-110 -10 -490 -10q0 57 5 102q24 1 235.5 4t245.5 3q4 -50 4 -99z" />
<glyph unicode="&#x2018;" horiz-adv-x="271" d="M191 430q0 -26 -18 -45.5t-50 -19.5q-31 0 -49.5 22t-18.5 59q0 40 28 80t75 69q38 -14 58 -30q-31 -28 -66 -78q41 -16 41 -57z" />
<glyph unicode="&#x2019;" horiz-adv-x="251" d="M59 523q0 26 19 45.5t47 19.5q33 0 52 -21.5t19 -58.5q0 -35 -24.5 -75.5t-59.5 -67.5q-27 10 -57 28q23 23 53 70q-49 14 -49 60z" />
<glyph unicode="&#x201c;" horiz-adv-x="436" d="M191 437q0 -26 -18 -45.5t-50 -19.5q-31 0 -49.5 22t-18.5 59q0 40 28 80t75 69q38 -14 58 -30q-31 -28 -66 -78q41 -16 41 -57zM377 426q0 -27 -19 -46.5t-48 -19.5q-34 0 -53 21.5t-19 59.5q0 36 24.5 77t60.5 68q28 -10 58 -28q-25 -25 -54 -72q50 -12 50 -60z" />
<glyph unicode="&#x201d;" horiz-adv-x="434" d="M243 536q0 26 18 45.5t50 19.5q31 0 49.5 -22t18.5 -59q0 -40 -28 -80t-75 -69q-38 14 -58 30q32 29 65 78q-40 16 -40 57zM59 529q0 26 19 45.5t47 19.5q33 0 52 -21.5t19 -58.5q0 -35 -24.5 -75.5t-59.5 -67.5q-27 10 -57 28q23 23 53 70q-49 14 -49 60z" />
<glyph unicode="&#x2022;" horiz-adv-x="341" d="M166 385q55 0 87.5 -33t32.5 -85q0 -51 -32 -83.5t-78 -32.5q-49 0 -85 31t-36 84q0 52 31.5 85.5t79.5 33.5z" />
<glyph unicode="&#x202f;" horiz-adv-x="139" />
<glyph unicode="&#x205f;" horiz-adv-x="173" />
</font>
</defs>
</svg>
